<?xml version="1.0" encoding="UTF-8" standalone="no"?>
<!DOCTYPE svg PUBLIC "-//W3C//DTD SVG 1.1//EN" "http://www.w3.org/Graphics/SVG/1.1/DTD/svg11.dtd">
<svg width="100%" height="100%" viewBox="0 0 785 785" version="1.1" xmlns="http://www.w3.org/2000/svg" xmlns:xlink="http://www.w3.org/1999/xlink" xml:space="preserve" xmlns:serif="http://www.serif.com/" style="fill-rule:evenodd;clip-rule:evenodd;stroke-linejoin:round;stroke-miterlimit:2;">
    <g transform="matrix(1,0,0,1,-591.934,-154.62)">
        <g id="traffic-signal.svg" transform="matrix(2.04322,0,0,2.04322,984.232,546.918)">
            <g transform="matrix(1,0,0,1,-192,-192)">
                <clipPath id="_clip1">
                    <rect x="0" y="0" width="384" height="384"/>
                </clipPath>
                <g clip-path="url(#_clip1)">
                    <path d="M192,384C297.863,384 384,297.871 384,192C384,140.672 364.039,92.449 327.793,56.207C291.543,19.961 243.328,0 192,0C86.129,0 -0,86.129 -0,192C-0,243.328 19.961,291.551 56.207,327.793C92.449,364.039 140.672,384 192,384ZM192,352C154.609,352 119.199,339.289 90.703,315.922L315.922,90.703C339.289,119.199 352,154.609 352,192C352,280.223 280.223,352 192,352ZM192,32C229.383,32 264.801,44.711 293.289,68.078L68.078,293.297C44.711,264.801 32,229.391 32,192C32,103.777 103.777,32 192,32Z" style="fill-rule:nonzero;"/>
                </g>
            </g>
            <g id="wordpress.svg" transform="matrix(0.489423,0,0,0.489423,-5.6176,14.4845)">
                <g transform="matrix(1,0,0,1,-256,-256)">
                    <g>
                        <g>
                            <path d="M505.289,80.809C493.952,51.36 480.823,40.91 429.714,40.91C398.436,40.91 374.857,64.489 374.857,95.767C374.857,112.508 383.561,127.913 392.759,144.233C396.316,150.542 399.991,157.051 403.182,163.707L406.693,170.893C414.757,187.25 420.572,199.071 420.572,223.766C420.572,233.192 418.698,244.411 414.501,259.99C414.4,260.219 414.309,260.456 414.218,260.703L383.771,351.2L304.841,128.773C307.127,128.444 309.403,128.17 311.68,127.795C326.437,127.356 338.286,115.224 338.286,100.376C338.286,85.245 325.989,72.947 310.857,72.947C310.363,72.947 309.851,72.993 309.358,73.066C273.948,78.963 238.053,78.963 202.643,73.066C202.158,72.993 201.646,72.947 201.144,72.947C186.022,72.947 173.715,85.244 173.715,100.376C173.715,115.224 185.573,127.357 200.33,127.795C203.484,128.307 206.648,128.728 209.82,129.157L246.291,223.968L200.897,358.432L118.538,128.014C118.977,127.932 119.407,127.877 119.845,127.795C134.51,127.274 146.286,115.178 146.286,100.385C146.286,85.254 133.989,72.956 118.857,72.956C118.263,72.956 117.659,73.011 117.065,73.13C87.927,78.954 58.368,78.954 29.23,73.13C28.636,73.011 28.032,72.956 27.429,72.956C12.306,72.955 0,85.253 0,100.384C0,115.031 11.557,126.99 26.021,127.73L137.902,434.756C144.11,452.155 158.528,465.156 176.476,469.554C180.746,470.587 185.034,471.09 189.276,471.09C212.325,471.09 233.838,456.333 241.381,433.696L292.874,279.237L348.133,434.254C353.235,446.606 361.774,455.529 372.16,459.397C381.321,462.798 391.259,462.058 400.137,457.559C411.977,452.823 421.083,443.186 425.124,431.1L493.065,228.43C508.718,189.262 512,154.702 512,132.613L512,117.6C512,104.782 509.742,92.402 505.289,80.809Z" style="fill-rule:nonzero;"/>
                        </g>
                    </g>
                </g>
            </g>
        </g>
    </g>
</svg>
