<?xml version="1.0" encoding="UTF-8" standalone="no"?>
<!DOCTYPE svg PUBLIC "-//W3C//DTD SVG 1.1//EN" "http://www.w3.org/Graphics/SVG/1.1/DTD/svg11.dtd">
<svg width="100%" height="100%" viewBox="0 0 1497 213" version="1.1" xmlns="http://www.w3.org/2000/svg" xmlns:xlink="http://www.w3.org/1999/xlink" xml:space="preserve" xmlns:serif="http://www.serif.com/" style="fill-rule:evenodd;clip-rule:evenodd;stroke-linejoin:round;stroke-miterlimit:2;">
    <g transform="matrix(1,0,0,1,-242.06,-369.796)">
        <g transform="matrix(1.86147,0,0,1.65642,-1120.14,-1054.17)">
            <path d="M820.264,945.46L830.428,891.593L776.836,891.593L772.793,913.01L798.319,913.01L796.24,923.654L770.483,923.654C764.708,923.654 762.745,922.615 762.745,919.76C762.745,919.111 762.86,918.591 762.976,917.813L768.751,887.44C769.559,883.027 771.176,881.469 778.453,881.469L832.276,881.469L836.434,859.663L774.295,859.663C751.888,859.663 744.149,863.817 741.031,880.171L732.599,924.951C732.137,927.547 731.791,929.884 731.791,931.831C731.791,942.734 739.298,945.46 758.125,945.46L820.264,945.46Z" style="fill-rule:nonzero;"/>
            <path d="M894.646,945.46L925.6,945.46L910.816,859.663L873.625,859.663L826.501,945.46L858.494,945.46L864.385,932.999L893.26,932.999L894.646,945.46ZM887.832,884.455L890.835,911.972L874.549,911.972L887.832,884.455Z" style="fill-rule:nonzero;"/>
            <path d="M1023.55,945.46L1028.51,918.591C1028.74,917.553 1028.86,916.515 1028.86,915.476C1028.86,910.414 1025.86,907.299 1022.27,906.261C1027.36,904.703 1031.51,900.549 1032.9,893.021L1035.33,880.171C1035.9,877.186 1036.25,874.72 1036.25,872.383C1036.25,863.038 1030.36,859.663 1012.8,859.663L948.238,859.663L932.068,945.46L961.174,945.46L966.603,916.255L992.821,916.255C997.557,916.255 999.174,917.553 999.174,920.279C999.174,920.798 999.058,921.447 998.943,922.096L994.554,945.46L1023.55,945.46ZM1004.83,890.685C1004.02,894.579 1003.33,896.526 998.25,896.526L970.414,896.526L973.186,881.469L1001.02,881.469C1004.72,881.469 1005.87,882.637 1005.87,884.714C1005.87,885.233 1005.76,885.882 1005.64,886.531L1004.83,890.685Z" style="fill-rule:nonzero;"/>
            <path d="M1095.15,945.46C1117.21,945.46 1125.07,941.825 1128.3,924.951L1136.74,880.171C1137.2,877.575 1137.43,875.369 1137.43,873.292C1137.43,862.129 1129.57,859.663 1111.33,859.663L1049.3,859.663L1033.13,945.46L1095.15,945.46ZM1100.7,917.813C1099.89,921.707 1096.66,923.654 1091.23,923.654L1066.39,923.654L1074.37,881.469L1099.2,881.469C1104.86,881.469 1106.59,882.767 1106.59,885.752C1106.59,886.272 1106.59,886.791 1106.47,887.44L1100.7,917.813Z" style="fill-rule:nonzero;"/>
            <path d="M1225.21,945.46L1241.38,859.663L1213.54,859.663L1205.34,903.275L1181.2,859.663L1151.17,859.663L1135,945.46L1162.72,945.46L1170.46,904.314L1196.56,945.46L1225.21,945.46Z" style="fill-rule:nonzero;"/>
            <path d="M1324.65,945.46L1328.7,923.654L1269.79,923.654L1271.87,912.75L1302.94,912.75L1306.87,892.242L1275.8,892.242L1277.76,881.469L1336.67,881.469L1340.82,859.663L1252.58,859.663L1236.41,945.46L1324.65,945.46Z" style="fill-rule:nonzero;"/>
            <path d="M1425.37,945.46L1430.34,918.591C1430.57,917.553 1430.68,916.515 1430.68,915.476C1430.68,910.414 1427.68,907.299 1424.1,906.261C1429.18,904.703 1433.34,900.549 1434.73,893.021L1437.15,880.171C1437.73,877.186 1438.08,874.72 1438.08,872.383C1438.08,863.038 1432.18,859.663 1414.63,859.663L1350.06,859.663L1333.89,945.46L1363,945.46L1368.43,916.255L1394.65,916.255C1399.38,916.255 1401,917.553 1401,920.279C1401,920.798 1400.88,921.447 1400.77,922.096L1396.38,945.46L1425.37,945.46ZM1406.66,890.685C1405.85,894.579 1405.16,896.526 1400.08,896.526L1372.24,896.526L1375.01,881.469L1402.85,881.469C1406.54,881.469 1407.7,882.637 1407.7,884.714C1407.7,885.233 1407.58,885.882 1407.47,886.531L1406.66,890.685Z" style="fill-rule:nonzero;"/>
            <path d="M1500.91,945.46C1518.81,945.46 1525.97,938.97 1528.63,924.951L1531.05,912.231C1531.4,910.284 1531.63,908.337 1531.63,906.65C1531.63,897.175 1525.86,891.853 1512.69,891.853L1474.69,891.853C1472.26,891.853 1471.22,891.074 1471.22,889.257C1471.22,888.738 1471.34,888.089 1471.45,887.44L1471.69,886.142C1472.26,883.027 1473.53,881.469 1476.65,881.469L1531.63,881.469L1535.79,859.663L1474.57,859.663C1454.25,859.663 1448.36,865.244 1445.58,879.912L1442.69,895.358C1442.35,896.785 1442.23,898.213 1442.23,899.511C1442.23,908.208 1448.59,913.27 1461.29,913.27L1499.87,913.27C1502.06,913.27 1502.99,914.048 1502.99,916.125C1502.99,916.515 1502.99,917.034 1502.87,917.683L1502.64,918.981C1501.95,922.356 1500.56,923.654 1497.9,923.654L1437.96,923.654L1433.92,945.46L1500.91,945.46Z" style="fill-rule:nonzero;"/>
            <g transform="matrix(0.478474,0,0,0.532545,634.031,497.394)">
                <g>
                    <path d="M778.617,921.108C796.202,921.108 802.462,918.506 805.04,906.421L811.761,874.35C812.129,872.491 812.313,870.911 812.313,869.424C812.313,861.429 806.053,859.663 791.506,859.663L742.067,859.663L729.178,921.108L778.617,921.108ZM783.036,901.308C782.392,904.097 779.814,905.491 775.487,905.491L755.693,905.491L762.045,875.28L781.839,875.28C786.351,875.28 787.732,876.21 787.732,878.348C787.732,878.72 787.732,879.091 787.64,879.556L783.036,901.308Z" style="fill-rule:nonzero;"/>
                    <path d="M833.581,921.108L846.47,859.663L823.269,859.663L810.38,921.108L833.581,921.108Z" style="fill-rule:nonzero;"/>
                    <path d="M914.875,921.108L922.977,882.531L880.258,882.531L877.036,897.869L897.383,897.869L895.725,905.491L875.195,905.491C870.591,905.491 869.026,904.748 869.026,902.703C869.026,902.238 869.118,901.866 869.21,901.308L873.814,879.556C874.458,876.396 875.747,875.28 881.547,875.28L924.45,875.28L927.764,859.663L878.233,859.663C860.372,859.663 854.203,862.638 851.718,874.35L844.997,906.421C844.629,908.28 844.352,909.953 844.352,911.348C844.352,919.156 850.337,921.108 865.343,921.108L914.875,921.108Z" style="fill-rule:nonzero;"/>
                    <path d="M946.73,921.108L959.619,859.663L936.419,859.663L923.529,921.108L946.73,921.108Z" style="fill-rule:nonzero;"/>
                    <path d="M998.195,921.108L1007.77,875.28L1029.77,875.28L1033.09,859.663L965.696,859.663L962.381,875.28L984.477,875.28L974.902,921.108L998.195,921.108Z" style="fill-rule:nonzero;"/>
                    <path d="M1066.23,921.108L1090.91,921.108L1079.12,859.663L1049.48,859.663L1011.91,921.108L1037.41,921.108L1042.11,912.184L1065.13,912.184L1066.23,921.108ZM1060.8,877.418L1063.19,897.125L1050.21,897.125L1060.8,877.418Z" style="fill-rule:nonzero;"/>
                    <path d="M1150.93,921.108L1154.15,905.491L1122.67,905.491L1132.34,859.663L1108.95,859.663L1096.06,921.108L1150.93,921.108Z" style="fill-rule:nonzero;"/>
                    <path d="M1240.14,921.108C1254.41,921.108 1260.12,916.461 1262.24,906.421L1264.17,897.311C1264.45,895.917 1264.63,894.522 1264.63,893.314C1264.63,886.528 1260.03,882.717 1249.54,882.717L1219.25,882.717C1217.31,882.717 1216.48,882.159 1216.48,880.858C1216.48,880.486 1216.58,880.021 1216.67,879.556L1216.85,878.627C1217.31,876.396 1218.33,875.28 1220.81,875.28L1264.63,875.28L1267.95,859.663L1219.15,859.663C1202.95,859.663 1198.26,863.66 1196.05,874.165L1193.74,885.227C1193.47,886.249 1193.38,887.272 1193.38,888.201C1193.38,894.429 1198.44,898.055 1208.57,898.055L1239.32,898.055C1241.07,898.055 1241.8,898.613 1241.8,900.1C1241.8,900.379 1241.8,900.751 1241.71,901.215L1241.53,902.145C1240.97,904.562 1239.87,905.491 1237.75,905.491L1189.97,905.491L1186.75,921.108L1240.14,921.108Z" style="fill-rule:nonzero;"/>
                    <path d="M1319.78,921.108C1337.18,921.108 1343.63,918.692 1346.2,906.421L1352.93,874.35C1353.3,872.491 1353.48,870.818 1353.48,869.331C1353.48,861.429 1347.4,859.663 1332.67,859.663L1301.83,859.663C1284.61,859.663 1278.08,862.08 1275.5,874.35L1268.78,906.421C1268.41,908.373 1268.13,910.046 1268.13,911.441C1268.13,919.342 1274.21,921.108 1288.94,921.108L1319.78,921.108ZM1324.2,901.308C1323.56,904.469 1321.81,905.491 1316.47,905.491L1298.98,905.491C1294.37,905.491 1292.9,904.748 1292.9,902.796C1292.9,902.331 1292.99,901.866 1293.08,901.308L1297.69,879.463C1298.42,876.117 1300.17,875.28 1305.33,875.28L1322.82,875.28C1327.33,875.28 1328.99,875.931 1328.99,878.162C1328.99,878.534 1328.9,878.998 1328.81,879.463L1324.2,901.308Z" style="fill-rule:nonzero;"/>
                    <path d="M1406.33,921.108L1409.55,905.491L1378.06,905.491L1387.73,859.663L1364.34,859.663L1351.45,921.108L1406.33,921.108Z" style="fill-rule:nonzero;"/>
                    <path d="M1465.62,921.108C1483.11,921.108 1489.28,918.413 1491.85,906.421L1501.7,859.663L1478.6,859.663L1469.85,901.308C1469.11,904.562 1467.55,905.491 1462.21,905.491L1445.45,905.491C1440.94,905.491 1439.38,904.841 1439.38,902.796C1439.38,902.331 1439.38,901.866 1439.56,901.308L1448.31,859.663L1425.01,859.663L1415.16,906.421C1414.8,908.28 1414.52,909.953 1414.52,911.348C1414.52,919.249 1420.69,921.108 1435.51,921.108L1465.62,921.108Z" style="fill-rule:nonzero;"/>
                    <path d="M1540.01,921.108L1549.58,875.28L1571.58,875.28L1574.9,859.663L1507.51,859.663L1504.19,875.28L1526.29,875.28L1516.71,921.108L1540.01,921.108Z" style="fill-rule:nonzero;"/>
                    <path d="M1591.29,921.108L1604.17,859.663L1580.97,859.663L1568.09,921.108L1591.29,921.108Z" style="fill-rule:nonzero;"/>
                    <path d="M1653.71,921.108C1671.11,921.108 1677.55,918.692 1680.13,906.421L1686.85,874.35C1687.22,872.491 1687.4,870.818 1687.4,869.331C1687.4,861.429 1681.33,859.663 1666.6,859.663L1635.75,859.663C1618.54,859.663 1612,862.08 1609.42,874.35L1602.7,906.421C1602.33,908.373 1602.06,910.046 1602.06,911.441C1602.06,919.342 1608.13,921.108 1622.86,921.108L1653.71,921.108ZM1658.13,901.308C1657.48,904.469 1655.73,905.491 1650.39,905.491L1632.9,905.491C1628.3,905.491 1626.82,904.748 1626.82,902.796C1626.82,902.331 1626.91,901.866 1627.01,901.308L1631.61,879.463C1632.35,876.117 1634.1,875.28 1639.25,875.28L1656.75,875.28C1661.26,875.28 1662.91,875.931 1662.91,878.162C1662.91,878.534 1662.82,878.998 1662.73,879.463L1658.13,901.308Z" style="fill-rule:nonzero;"/>
                    <path d="M1757.28,921.108L1770.17,859.663L1747.98,859.663L1741.45,890.897L1722.2,859.663L1698.27,859.663L1685.38,921.108L1707.47,921.108L1713.64,891.641L1734.45,921.108L1757.28,921.108Z" style="fill-rule:nonzero;"/>
                    <path d="M1818.78,921.108C1833.05,921.108 1838.76,916.461 1840.88,906.421L1842.81,897.311C1843.09,895.917 1843.27,894.522 1843.27,893.314C1843.27,886.528 1838.67,882.717 1828.17,882.717L1797.88,882.717C1795.95,882.717 1795.12,882.159 1795.12,880.858C1795.12,880.486 1795.21,880.021 1795.31,879.556L1795.49,878.627C1795.95,876.396 1796.96,875.28 1799.45,875.28L1843.27,875.28L1846.59,859.663L1797.79,859.663C1781.59,859.663 1776.89,863.66 1774.68,874.165L1772.38,885.227C1772.1,886.249 1772.01,887.272 1772.01,888.201C1772.01,894.429 1777.08,898.055 1787.2,898.055L1817.95,898.055C1819.7,898.055 1820.44,898.613 1820.44,900.1C1820.44,900.379 1820.44,900.751 1820.35,901.215L1820.16,902.145C1819.61,904.562 1818.51,905.491 1816.39,905.491L1768.61,905.491L1765.38,921.108L1818.78,921.108Z" style="fill-rule:nonzero;"/>
                </g>
            </g>
        </g>
    </g>
</svg>
