<svg xmlns="http://www.w3.org/2000/svg" version="1.1" xmlns:xlink="http://www.w3.org/1999/xlink" width="512" height="512" x="0" y="0" viewBox="0 0 511 512" style="enable-background:new 0 0 512 512" xml:space="preserve" class=""><g><path fill="#000000" d="M436.832 75.441C387.301 25.918 321.863 0 256.426 0S125.546 25.918 76.02 75.441c-100.692 100.696-100.692 260.122 0 360.813C125.852 486.082 190.988 512 256.426 512S387 486.082 436.832 436.254c100.691-100.691 100.691-260.117 0-360.813zM118.344 117.77c38.125-37.825 87.953-58.336 138.082-58.336 39.324 0 78.945 13.007 113.168 37.324L256.426 209.922 97.332 369.016c-56.344-79.614-48.086-181.844 21.012-251.246zm276.16 276.16c-38.121 37.824-87.95 58.336-138.078 58.336-39.324 0-78.946-13.008-113.168-37.325L415.52 142.684c56.34 79.609 48.085 181.84-21.016 251.246zm0 0" opacity="1" data-original="#ff4949" class=""></path><path fill="#000000" d="M436.832 436.254C387 486.082 321.863 512 256.426 512v-59.734c50.129 0 99.96-20.512 138.078-58.336 69.101-69.407 77.355-171.637 21.016-251.246L256.426 301.777v-91.855L369.59 96.758C335.37 72.44 295.746 59.434 256.426 59.434V0C321.863 0 387.3 25.918 436.832 75.441c100.691 100.696 100.691 260.121 0 360.813zm0 0" opacity="1" data-original="#ff193d" class=""></path></g></svg>