<svg height="512pt" viewBox="-1 0 512 512.00037" width="512pt" xmlns="http://www.w3.org/2000/svg"><path d="m330.214844 0c-99.246094 0-179.980469 80.746094-179.980469 179.992188 0 34.132812 9.546875 66.070312 26.121094 93.289062l-163.464844 163.46875c-17.179687 17.152344-17.195313 45.136719 0 62.332031 17.222656 17.222657 45.105469 17.226563 62.332031 0l163.90625-163.917969c26.726563 15.761719 57.871094 24.804688 91.085938 24.804688 99.242187 0 179.980468-80.746094 179.980468-179.976562 0-99.246094-80.738281-179.992188-179.980468-179.992188zm-277.15625 476.917969c-4.984375 5.003906-13.046875 4.972656-18.015625 0-4.960938-4.960938-4.960938-13.046875 0-18.015625l160.09375-160.09375c5.617187 6.378906 11.6875 12.355468 18.140625 17.890625zm277.15625-148.28125c-81.957032 0-148.648438-66.675781-148.648438-148.644531s66.679688-148.660157 148.648438-148.660157 148.644531 66.691407 148.644531 148.660157c0 81.957031-66.675781 148.644531-148.644531 148.644531zm0 0"/><path d="m413.800781 164.324219h-83.585937c-8.660156 0-15.667969 7.007812-15.667969 15.667969 0 8.644531 7.007813 15.664062 15.667969 15.664062h66.101562c-7.089844 29.925781-34.039062 52.253906-66.101562 52.253906-37.453125 0-67.929688-30.464844-67.929688-67.917968 0-37.464844 30.476563-67.933594 67.929688-67.933594 13.609375 0 26.738281 4.011718 37.964844 11.59375 7.164062 4.847656 16.910156 2.957031 21.757812-4.207032 4.835938-7.175781 2.953125-16.910156-4.222656-21.757812-16.417969-11.09375-35.613282-16.960938-55.5-16.960938-54.730469 0-99.265625 44.523438-99.265625 99.265626 0 54.894531 44.695312 99.253906 99.265625 99.253906 54.730468 0 99.253906-44.527344 99.253906-99.253906 0-8.660157-7.007812-15.667969-15.667969-15.667969zm0 0"/></svg>