<svg xmlns="http://www.w3.org/2000/svg" version="1.1" xmlns:xlink="http://www.w3.org/1999/xlink" width="512" height="512" x="0" y="0" viewBox="0 0 512 512" style="enable-background:new 0 0 512 512" xml:space="preserve" class=""><g><path d="M330.215 0c-99.246 0-179.98 80.746-179.98 179.992 0 34.133 9.546 66.07 26.12 93.29L12.891 436.75c-17.18 17.152-17.196 45.137 0 62.332 17.222 17.223 45.105 17.227 62.332 0l163.906-163.918c26.726 15.762 57.871 24.805 91.086 24.805 99.242 0 179.98-80.746 179.98-179.977C510.195 80.746 429.457 0 330.215 0zM53.059 476.918c-4.985 5.004-13.047 4.973-18.016 0-4.961-4.961-4.961-13.047 0-18.016L195.137 298.81a182.407 182.407 0 0 0 18.14 17.89zm277.156-148.281c-81.957 0-148.649-66.676-148.649-148.645s66.68-148.66 148.649-148.66 148.644 66.691 148.644 148.66c0 81.957-66.675 148.645-148.644 148.645zm0 0" fill="#ffd700" opacity="1" data-original="#000000" class=""></path><path d="M413.8 164.324h-83.585c-8.66 0-15.668 7.008-15.668 15.668 0 8.645 7.008 15.664 15.668 15.664h66.101c-7.09 29.926-34.039 52.254-66.101 52.254-37.453 0-67.93-30.465-67.93-67.918 0-37.465 30.477-67.933 67.93-67.933 13.61 0 26.738 4.011 37.965 11.593 7.164 4.848 16.91 2.957 21.757-4.207 4.836-7.175 2.954-16.91-4.222-21.757-16.418-11.094-35.613-16.961-55.5-16.961-54.73 0-99.266 44.523-99.266 99.265 0 54.895 44.696 99.254 99.266 99.254 54.73 0 99.254-44.527 99.254-99.254 0-8.66-7.008-15.668-15.668-15.668zm0 0" fill="#ffd700" opacity="1" data-original="#000000" class=""></path></g></svg>