<svg xmlns="http://www.w3.org/2000/svg" version="1.1" xmlns:xlink="http://www.w3.org/1999/xlink" width="512" height="512" x="0" y="0" viewBox="0 0 256 256" style="enable-background:new 0 0 512 512" xml:space="preserve" class=""><g><circle cx="102.399" cy="160.826" r="5.004" fill="#ffd700" opacity="1" data-original="#000000" class=""></circle><circle cx="128" cy="160.826" r="5.004" fill="#ffd700" opacity="1" data-original="#000000" class=""></circle><circle cx="153.601" cy="160.826" r="5.004" fill="#ffd700" opacity="1" data-original="#000000" class=""></circle><path d="M48.038 165.828a33.693 33.693 0 1 1 33.692-33.692 33.73 33.73 0 0 1-33.692 33.692zm0-57.385a23.693 23.693 0 1 0 23.692 23.693 23.719 23.719 0 0 0-23.692-23.693z" fill="#ffd700" opacity="1" data-original="#000000" class=""></path><path d="M91.077 226.082H5a5 5 0 0 1-5-5v-17.216a48.039 48.039 0 0 1 96.077 0v17.216a5 5 0 0 1-5 5zm-81.077-10h76.077v-12.216a38.039 38.039 0 0 0-76.077 0zM207.962 165.828a33.693 33.693 0 1 1 33.692-33.692 33.73 33.73 0 0 1-33.692 33.692zm0-57.385a23.693 23.693 0 1 0 23.692 23.693 23.718 23.718 0 0 0-23.692-23.693z" fill="#ffd700" opacity="1" data-original="#000000" class=""></path><path d="M251 226.082h-86.077a5 5 0 0 1-5-5v-17.216a48.039 48.039 0 0 1 96.077 0v17.216a5 5 0 0 1-5 5zm-81.077-10H246v-12.216a38.039 38.039 0 0 0-76.077 0zM105.209 130.986a5 5 0 0 1-5-5v-14.774h-5a16.317 16.317 0 0 1-16.3-16.3v-48.7a16.317 16.317 0 0 1 16.3-16.3h64.528a16.316 16.316 0 0 1 16.3 16.3v48.7a16.317 16.317 0 0 1-16.3 16.3h-32.682l-18.31 18.309a4.991 4.991 0 0 1-3.536 1.465zm-10-91.068a6.3 6.3 0 0 0-6.3 6.3v48.7a6.3 6.3 0 0 0 6.3 6.3h10a5 5 0 0 1 5 5v7.7l11.238-11.238a4.994 4.994 0 0 1 3.535-1.465h34.759a6.3 6.3 0 0 0 6.3-6.3v-48.7a6.3 6.3 0 0 0-6.3-6.3z" fill="#ffd700" opacity="1" data-original="#000000" class=""></path></g></svg>